PathFileType	4	(X/Y/Z)	s07c0401.trc
DataRate	CameraRate	NumFrames	NumMarkers	Units	OrigDataRate	OrigDataStartFrame	OrigNumFrames
200	200	6	48	mm	200	1250	2000
Frame#	Time	racr			lacr			c7			jug			rlel			rdr			llel			ldr			s2			lic			ric			lasi			rasi			rpsi			lpsi			rgt			lgt			rth1			rth2			rth3			rth4			rlfc			rmfc			rsh1			rsh2			rsh3			rsh4			rlmal			rcal			rtoe			rmt5			lth1			lth2			lth4			lth3			llfc			lmfc			lsh1			lsh2			lsh3			lsh4			llmal			lcal			ltoe			lmt5			SBIKE			LBIKE			RBIKE			
		X1	Y1	Z1	X2	Y2	Z2	X3	Y3	Z3	X4	Y4	Z4	X5	Y5	Z5	X6	Y6	Z6	X7	Y7	Z7	X8	Y8	Z8	X9	Y9	Z9	X10	Y10	Z10	X11	Y11	Z11	X12	Y12	Z12	X13	Y13	Z13	X14	Y14	Z14	X15	Y15	Z15	X16	Y16	Z16	X17	Y17	Z17	X18	Y18	Z18	X19	Y19	Z19	X20	Y20	Z20	X21	Y21	Z21	X22	Y22	Z22	X23	Y23	Z23	X24	Y24	Z24	X25	Y25	Z25	X26	Y26	Z26	X27	Y27	Z27	X28	Y28	Z28	X29	Y29	Z29	X30	Y30	Z30	X31	Y31	Z31	X32	Y32	Z32	X33	Y33	Z33	X34	Y34	Z34	X35	Y35	Z35	X36	Y36	Z36	X37	Y37	Z37	X38	Y38	Z38	X39	Y39	Z39	X40	Y40	Z40	X41	Y41	Z41	X42	Y42	Z42	X43	Y43	Z43	X44	Y44	Z44	X45	Y45	Z45	X46	Y46	Z46	X47	Y47	Z47	X48	Y48	Z48	
1250	6.2500	785.296586	1340.923654	-43.430502	807.257632	1361.212584	-365.341454	801.122967	1404.964331	-202.768000	727.696958	1271.027276	-219.616407	489.750161	1129.560864	5.952249	696.596030	950.335503	-65.279373	558.975414	1172.372198	-540.687166	690.583081	935.011148	-441.490603	191.946265	1319.435120	-260.973728	367.441630	1324.064257	-395.373297	355.897214	1314.791069	-103.016598	372.823477	1239.387795	-370.511744	360.888676	1262.737416	-120.980273	227.060018	1350.350212	-210.399340	245.930264	1354.094167	-315.996455	276.243953	1210.828845	-63.928169	271.627564	1182.241350	-426.422443	370.967909	1089.330828	-59.203474	437.192234	1030.342092	-68.093091	467.523669	952.238816	-68.142458	463.780854	1052.326983	-83.050602	528.210494	820.939484	-101.575361	515.035605	808.085646	-206.091375	441.582136	705.201756	-74.639065	407.145403	624.706913	-93.315038	340.042622	569.244755	-87.920529	419.628891	617.278822	-132.360137	252.959363	461.498033	-83.754129	177.180358	432.180611	-111.366735	459.065798	364.516493	-125.601717	377.291712	344.764731	-54.438510	307.624285	1063.138909	-426.534881	355.230059	988.902406	-418.686946	386.733260	999.510776	-405.252452	359.085063	900.206463	-415.435202	373.709788	726.038882	-394.851807	357.486399	712.328407	-298.334035	257.463521	626.649747	-412.592563	208.007401	558.544907	-394.504995	127.245265	518.527416	-400.612498	213.721595	558.854967	-352.345637	18.999371	433.657473	-399.169997	-55.250775	456.446553	-360.849926	120.807798	225.414661	-358.937212	49.282493	269.058992	-418.255765	-262.028978	976.944358	-233.552433	-82.442997	79.977987	-434.867019	-82.473155	79.233425	-37.377524	
1251	6.2550	786.436900	1338.533869	-43.896781	806.894027	1361.792512	-366.151526	801.401435	1403.666408	-202.775109	728.197743	1269.808429	-220.519122	489.801190	1129.073403	7.049801	696.280627	950.130361	-65.842352	558.705132	1172.076873	-540.580737	690.273169	934.865397	-441.374278	192.012209	1319.302621	-261.884226	368.347998	1324.588768	-394.862007	355.254737	1313.151895	-102.540888	373.589675	1239.888923	-370.080690	360.027098	1261.432104	-120.308944	226.883533	1349.817785	-210.847585	246.318975	1354.164349	-316.193033	274.161255	1209.259167	-64.476212	273.819266	1182.976307	-427.807565	366.812721	1085.775139	-58.239619	432.448158	1025.607721	-67.945903	461.222993	946.849896	-68.106181	459.566224	1047.124877	-82.569275	520.172360	815.132867	-100.924706	507.609292	801.997815	-205.382016	436.078001	697.961848	-74.135428	404.223103	615.774411	-92.710296	337.466022	559.786504	-87.357735	417.118073	610.760206	-130.133847	253.006569	449.103158	-83.975116	176.726198	419.603744	-110.656588	460.122490	354.791130	-125.729269	378.756280	334.008920	-54.565105	311.318587	1064.581515	-426.647100	359.763748	991.195714	-419.240185	391.329947	1002.084958	-405.598633	364.989064	902.355069	-415.350970	380.763788	727.844933	-394.513344	364.897470	714.819555	-297.349603	263.309278	630.937358	-412.499428	212.102982	564.219737	-394.025337	130.359168	526.158136	-400.369572	218.103640	564.430236	-351.977404	19.881530	443.917587	-399.138111	-53.978286	468.047531	-360.881030	118.605838	234.474630	-359.080707	47.719640	279.120220	-418.322090	-262.120037	976.860622	-233.863981	-82.444808	79.887504	-434.884433	-82.497794	79.235284	-37.383891	
1252	6.2600	787.686607	1336.297511	-44.413527	806.640712	1362.578880	-366.947579	801.592825	1402.561927	-202.761807	728.759962	1268.764964	-221.388400	490.065789	1128.291538	8.040173	695.988230	949.934979	-66.405863	558.533677	1171.855708	-540.321265	690.060221	934.544504	-441.083838	192.104187	1318.887899	-262.757648	369.257065	1324.785601	-394.122566	354.682606	1311.356203	-102.177728	374.293959	1240.079624	-369.515233	359.278955	1260.020935	-119.676450	226.633334	1349.031688	-211.088614	246.652182	1353.913983	-316.388738	272.326593	1207.449713	-65.125108	275.477611	1183.418282	-428.704691	363.276590	1081.978030	-58.556584	427.718984	1020.634682	-67.855807	455.072194	941.270063	-68.252825	455.278766	1041.666767	-82.090219	512.223010	809.173996	-100.564694	499.724883	796.035000	-204.872972	430.572861	690.448749	-73.668253	400.606648	607.898538	-91.825242	335.115823	550.441568	-85.947472	413.151936	603.119811	-129.609303	252.634451	437.194905	-83.298160	176.703429	407.055240	-110.033829	460.594099	344.671367	-125.916929	379.871933	323.207273	-54.578450	314.405637	1065.599214	-426.855195	363.762141	992.831644	-419.551590	395.318100	1004.189851	-406.243478	370.126323	904.130690	-415.597027	388.312032	729.530010	-394.315798	371.996326	717.063242	-296.514288	268.608637	635.504761	-412.289512	215.917886	569.765605	-393.630880	133.777280	533.990696	-400.787509	220.965016	569.818788	-352.221800	20.733699	454.399513	-399.105251	-52.917943	479.352166	-360.889357	117.171504	243.998701	-359.177840	46.649487	289.425087	-418.408050	-262.247321	976.750202	-234.262238	-82.453882	79.790875	-434.903816	-82.503718	79.216489	-37.402589	
1253	6.2650	788.712763	1334.256334	-45.004614	807.087986	1363.848232	-368.910499	801.721879	1401.641591	-202.680947	729.360952	1267.938520	-222.296462	490.288728	1127.629070	9.056221	695.691189	949.757063	-66.882739	558.443625	1171.775202	-539.923688	690.016117	934.318952	-441.117076	192.147296	1318.124731	-263.477817	370.026704	1324.638875	-393.461672	354.212316	1309.535729	-101.826878	374.824667	1239.969251	-369.125978	358.681731	1258.491185	-119.061317	226.390946	1347.961639	-211.282407	246.958005	1353.444618	-316.523801	270.673030	1205.284925	-65.528094	277.140834	1183.538653	-429.706730	359.823213	1077.923282	-58.905191	423.016015	1015.437057	-67.830635	448.898624	935.498577	-68.393676	451.143899	1035.907220	-81.799251	504.310073	802.970850	-100.316049	491.788562	789.765668	-204.657255	424.923594	682.899096	-73.120933	396.677032	599.891988	-91.013693	332.369607	540.897283	-85.204773	409.090626	595.255480	-129.029456	252.011619	425.634409	-82.424503	176.370216	394.925258	-109.389410	460.853516	334.554489	-125.681032	380.040925	311.907710	-54.483927	316.915577	1066.222112	-427.127007	367.188251	994.064381	-420.009263	398.731594	1005.900086	-407.115127	374.712498	905.543063	-415.986491	395.562948	731.019983	-394.170805	378.871599	718.919122	-295.739143	273.869836	639.744318	-412.014839	219.501285	575.174865	-393.445461	136.545902	541.805755	-400.543293	224.736537	575.056152	-352.142463	21.521619	465.106681	-399.238270	-51.831659	490.486711	-360.862520	115.849912	253.011208	-357.955095	46.373471	299.991076	-418.599722	-262.350600	976.687288	-234.701275	-82.483130	79.671402	-434.976942	-82.528216	79.208428	-37.454292	
1254	6.2700	789.739328	1332.380828	-45.544611	806.960806	1365.003970	-369.695766	801.792838	1400.976477	-202.676239	730.133994	1266.954451	-223.183232	490.569595	1127.045647	10.140038	695.405056	949.599811	-67.319616	558.416991	1171.795790	-539.353037	689.801015	934.216065	-442.161174	192.212149	1317.116421	-263.882440	370.593799	1324.240839	-392.809817	353.814351	1307.537527	-101.402088	375.219372	1239.576044	-368.601750	358.289322	1256.732892	-118.375464	226.245307	1346.639178	-211.399837	247.171838	1352.736012	-316.498084	269.364855	1202.972451	-65.904733	278.484347	1183.299852	-430.480532	356.434939	1073.656471	-59.195315	418.348757	1010.027937	-67.873598	442.523758	929.583300	-68.613276	446.815968	1029.917993	-81.429147	496.324386	796.617243	-100.245723	484.702672	783.514304	-205.423920	418.983325	675.255124	-72.630616	392.282865	592.030263	-90.123793	329.361788	531.351466	-84.536086	404.903405	587.206447	-128.420060	250.755328	414.448427	-81.694414	175.863079	383.631844	-108.149572	460.185036	323.450219	-126.056334	379.609318	300.509185	-54.556933	319.004725	1066.479180	-427.556328	370.160973	994.970243	-420.641476	401.697138	1007.203101	-408.108371	378.946091	906.624892	-416.722410	402.669572	732.425656	-394.142922	385.565970	720.619250	-295.299343	278.994200	643.777078	-411.735112	222.940399	580.990352	-393.256203	138.783695	549.681687	-400.058525	228.513911	580.465359	-351.944027	22.409670	475.737724	-399.152608	-50.627907	501.466390	-361.051690	115.851525	263.247237	-358.144113	46.542052	310.528662	-418.762983	-262.455036	976.618470	-235.059170	-82.517916	79.532899	-434.997482	-82.540275	79.174997	-37.484761	
1255	6.2750	790.725047	1330.725350	-46.054456	806.793173	1366.094324	-369.815923	801.793512	1400.472128	-202.708392	730.932404	1266.388656	-224.088331	490.877649	1126.530706	11.284975	695.084657	949.374186	-67.653723	558.473997	1171.879223	-538.686513	689.744766	933.893340	-442.292828	192.258535	1315.903905	-264.162922	371.020422	1323.577476	-392.152574	353.580053	1305.422341	-101.005796	375.406591	1238.988631	-368.089072	358.124694	1254.903097	-117.723248	226.158398	1345.093654	-211.325659	247.306037	1351.827566	-316.436816	268.265846	1200.441701	-66.197134	279.537337	1182.815003	-431.090748	353.074907	1069.276135	-59.473142	413.723135	1004.421503	-67.982530	435.957212	923.380236	-68.968054	442.707646	1023.661755	-81.320273	488.360683	789.928669	-100.322769	475.107974	776.876789	-204.500640	412.952186	667.529128	-72.206868	387.724412	583.737011	-89.173586	325.892831	521.964240	-84.048707	400.250756	579.234603	-127.971623	249.344378	403.491586	-81.216624	174.932729	371.852742	-108.356353	459.159996	312.415255	-126.312291	378.857326	289.502324	-54.660305	320.664816	1066.340679	-428.040763	372.755346	995.615661	-421.463945	404.237786	1008.235366	-409.113748	382.751173	907.345423	-417.522461	409.607208	733.691619	-394.078497	392.081718	721.985495	-294.971824	283.931371	648.061877	-411.452885	226.841062	586.119397	-393.309573	141.480293	556.966835	-399.545590	233.252685	585.110715	-353.243661	23.738337	486.207471	-399.254561	-48.823075	512.092598	-361.328226	116.589406	273.609631	-358.352312	47.215058	321.083344	-419.066247	-262.533814	976.517136	-235.305390	-82.523348	79.441139	-435.042666	-82.552230	79.154983	-37.493355	
